<svg xmlns="http://www.w3.org/2000/svg" viewBox="0 0 407.7 22.1"><defs><style>.cls-1{fill:#1d2b53;}</style></defs><title>アセット 1</title><g id="レイヤー_2" data-name="レイヤー 2"><g id="レイヤー_1-2" data-name="レイヤー 1"><path class="cls-1" d="M0,15.67,2,14.2a3.28,3.28,0,0,0,3,2c1.85,0,2.77-1,2.77-3.7V0h2.9V12.77c0,3.3-1.6,5.95-5.35,5.95A5.64,5.64,0,0,1,0,15.67Z"/><path class="cls-1" d="M13.82,16.21c0-1.77,1.5-2.69,4.94-3.06,0-1-.36-1.8-1.58-1.8a4.51,4.51,0,0,0-2.38.84L14.15,11a6.33,6.33,0,0,1,3.33-1.08c2.06,0,3,1.3,3,3.49v5H19.07l-.15-.95h0a4.09,4.09,0,0,1-2.63,1.14A2.28,2.28,0,0,1,13.82,16.21Zm4.94.06v-2c-2.45.3-3.27.92-3.27,1.85s.55,1.14,1.29,1.14A2.94,2.94,0,0,0,18.76,16.27Z"/><path class="cls-1" d="M22.93,10.15h1.41l.13,1.15h.05a3.58,3.58,0,0,1,2.55-1.36,2.2,2.2,0,0,1,2.28,1.51A3.79,3.79,0,0,1,32,9.94c1.73,0,2.54,1.17,2.54,3.27V18.4H32.84v-5c0-1.43-.45-2-1.38-2a2.76,2.76,0,0,0-1.86,1.13V18.4H27.88v-5c0-1.43-.44-2-1.38-2a2.79,2.79,0,0,0-1.86,1.13V18.4H22.93Z"/><path class="cls-1" d="M38.62,17.54h0l-.16.86H37.06v-12h1.71V9.61L38.72,11a3.92,3.92,0,0,1,2.46-1.08c2.09,0,3.27,1.66,3.27,4.2,0,2.83-1.69,4.45-3.55,4.45A3.39,3.39,0,0,1,38.62,17.54Zm4.05-3.37c0-1.73-.56-2.79-1.94-2.79a2.88,2.88,0,0,0-2,1v4a2.79,2.79,0,0,0,1.8.75C41.77,17.17,42.67,16.1,42.67,14.17Z"/><path class="cls-1" d="M45.91,14.29c0-2.76,1.84-4.35,3.88-4.35s3.89,1.59,3.89,4.35a3.91,3.91,0,1,1-7.77,0Zm6,0c0-1.76-.81-2.93-2.12-2.93s-2.1,1.17-2.1,2.93.81,2.89,2.1,2.89S51.91,16,51.91,14.29Z"/><path class="cls-1" d="M55.7,10.15h1.41l.14,1.48h0a2.87,2.87,0,0,1,2.34-1.69,2,2,0,0,1,.93.18l-.31,1.5a2.49,2.49,0,0,0-.83-.14c-.67,0-1.48.47-2,1.77V18.4H55.7Z"/><path class="cls-1" d="M61.25,14.29c0-2.69,1.83-4.35,3.77-4.35,2.19,0,3.36,1.57,3.36,3.91a4,4,0,0,1-.08.87H63a2.48,2.48,0,0,0,2.55,2.52,3.49,3.49,0,0,0,2-.61l.6,1.09a5,5,0,0,1-2.79.87A4,4,0,0,1,61.25,14.29Zm5.64-.75c0-1.43-.64-2.25-1.84-2.25a2.24,2.24,0,0,0-2.12,2.25Z"/><path class="cls-1" d="M69.73,14.29c0-2.69,1.83-4.35,3.76-4.35,2.19,0,3.36,1.57,3.36,3.91a4.91,4.91,0,0,1-.07.87H71.42A2.49,2.49,0,0,0,74,17.24a3.5,3.5,0,0,0,2-.61l.6,1.09a5,5,0,0,1-2.79.87A4,4,0,0,1,69.73,14.29Zm5.64-.75c0-1.43-.65-2.25-1.85-2.25a2.23,2.23,0,0,0-2.11,2.25Z"/><path class="cls-1" d="M82.16,10.15h1.41l.14.9h0a4.18,4.18,0,0,1,2.54-1.11c2.1,0,3.27,1.66,3.27,4.2,0,2.83-1.7,4.45-3.56,4.45a3.39,3.39,0,0,1-2.17-.93l0,1.41v2.67H82.16Zm5.61,4c0-1.73-.55-2.79-1.93-2.79a2.92,2.92,0,0,0-2,1v4a2.83,2.83,0,0,0,1.8.75C86.87,17.17,87.77,16.1,87.77,14.17Z"/><path class="cls-1" d="M91.61,10.15H93l.14,1.48h0a2.87,2.87,0,0,1,2.34-1.69,2,2,0,0,1,.93.18l-.31,1.5a2.49,2.49,0,0,0-.83-.14c-.67,0-1.48.47-2,1.77V18.4H91.61Z"/><path class="cls-1" d="M100.57,14.29c0-2.69,1.69-4.35,3.54-4.35a3.2,3.2,0,0,1,2.22.93l-.08-1.37V6.44H108v12h-1.41l-.15-.93h0a3.44,3.44,0,0,1-2.4,1.12C101.9,18.59,100.57,17,100.57,14.29Zm5.68,1.87v-4a2.55,2.55,0,0,0-1.81-.75c-1.16,0-2.09,1.09-2.09,2.88s.74,2.91,2,2.91A2.42,2.42,0,0,0,106.25,16.16Z"/><path class="cls-1" d="M110,14.29c0-2.69,1.83-4.35,3.76-4.35,2.19,0,3.36,1.57,3.36,3.91a4.91,4.91,0,0,1-.07.87h-5.36a2.49,2.49,0,0,0,2.55,2.52,3.5,3.5,0,0,0,2-.61l.6,1.09a5,5,0,0,1-2.79.87A4,4,0,0,1,110,14.29Zm5.64-.75c0-1.43-.65-2.25-1.85-2.25a2.23,2.23,0,0,0-2.11,2.25Z"/><path class="cls-1" d="M119.05,10.15h1.41l.13.9h0a4.18,4.18,0,0,1,2.53-1.11c2.1,0,3.27,1.66,3.27,4.2,0,2.83-1.69,4.45-3.55,4.45a3.41,3.41,0,0,1-2.18-.93l.05,1.41v2.67h-1.71Zm5.61,4c0-1.73-.56-2.79-1.94-2.79a2.9,2.9,0,0,0-2,1v4a2.81,2.81,0,0,0,1.8.75C123.76,17.17,124.66,16.1,124.66,14.17Z"/><path class="cls-1" d="M128.77,15.7V11.53h-1.2V10.24l1.27-.09.2-2.28h1.45v2.28h2.15v1.38h-2.15v4.18c0,1,.35,1.5,1.2,1.5a2.57,2.57,0,0,0,.89-.19l.31,1.27a5.25,5.25,0,0,1-1.62.3C129.41,18.59,128.77,17.44,128.77,15.7Z"/><path class="cls-1" d="M133.93,20.42a2.31,2.31,0,0,0,1.63-2.05h-.16a1.08,1.08,0,0,1-1.16-1.11,1.12,1.12,0,0,1,1.2-1.11c.84,0,1.34.71,1.34,1.86a3.53,3.53,0,0,1-2.46,3.38Z"/><path class="cls-1" d="M143.4,0h10.87V2.42h-8V7.55h6.75V10H146.3V16h8.25V18.4H143.4Z"/><path class="cls-1" d="M157.28,10.15h1.41l.14,1.14h0a3.93,3.93,0,0,1,2.73-1.35c1.76,0,2.54,1.17,2.54,3.27V18.4h-1.73v-5c0-1.43-.42-2-1.39-2a2.82,2.82,0,0,0-2,1.13V18.4h-1.71Z"/><path class="cls-1" d="M166.64,6.44h1.71V9.61l-.06,1.63A3.84,3.84,0,0,1,171,9.94c1.76,0,2.54,1.17,2.54,3.27V18.4h-1.73v-5c0-1.43-.42-2-1.39-2a2.82,2.82,0,0,0-2,1.13V18.4h-1.71Z"/><path class="cls-1" d="M175.48,16.21c0-1.77,1.5-2.69,4.93-3.06,0-1-.36-1.8-1.57-1.8a4.57,4.57,0,0,0-2.39.84L175.81,11a6.3,6.3,0,0,1,3.33-1.08c2.05,0,3,1.3,3,3.49v5h-1.41l-.15-.95h-.05a4.06,4.06,0,0,1-2.62,1.14A2.28,2.28,0,0,1,175.48,16.21Zm4.93.06v-2c-2.44.3-3.27.92-3.27,1.85s.56,1.14,1.29,1.14A2.92,2.92,0,0,0,180.41,16.27Z"/><path class="cls-1" d="M184.58,10.15H186l.14,1.14h0a3.93,3.93,0,0,1,2.73-1.35c1.76,0,2.54,1.17,2.54,3.27V18.4h-1.73v-5c0-1.43-.42-2-1.39-2a2.82,2.82,0,0,0-2,1.13V18.4h-1.71Z"/><path class="cls-1" d="M193.36,14.29a4.05,4.05,0,0,1,4.08-4.35,3.55,3.55,0,0,1,2.41.94L199,12a2.16,2.16,0,0,0-1.49-.65c-1.38,0-2.37,1.17-2.37,2.93s1,2.89,2.33,2.89a2.84,2.84,0,0,0,1.8-.75l.7,1.14a4,4,0,0,1-2.67,1C195.07,18.59,193.36,17,193.36,14.29Z"/><path class="cls-1" d="M201.11,14.29c0-2.69,1.83-4.35,3.77-4.35,2.19,0,3.36,1.57,3.36,3.91a4,4,0,0,1-.08.87h-5.35a2.48,2.48,0,0,0,2.55,2.52,3.49,3.49,0,0,0,2-.61l.6,1.09a5,5,0,0,1-2.79.87A4,4,0,0,1,201.11,14.29Zm5.64-.75c0-1.43-.64-2.25-1.84-2.25a2.24,2.24,0,0,0-2.12,2.25Z"/><path class="cls-1" d="M209.62,14.29c0-2.69,1.69-4.35,3.54-4.35a3.2,3.2,0,0,1,2.22.93L215.3,9.5V6.44H217v12h-1.41l-.15-.93h-.05a3.44,3.44,0,0,1-2.4,1.12C211,18.59,209.62,17,209.62,14.29Zm5.68,1.87v-4a2.55,2.55,0,0,0-1.81-.75c-1.16,0-2.09,1.09-2.09,2.88s.74,2.91,2,2.91A2.42,2.42,0,0,0,215.3,16.16Z"/><path class="cls-1" d="M224.12,0h4.77c5.65,0,8.87,3.12,8.87,9.12S234.54,18.4,229,18.4h-4.92Zm4.57,16c3.95,0,6.07-2.32,6.07-6.9s-2.12-6.77-6.07-6.77H227V16Z"/><path class="cls-1" d="M240.23,7.58a1.11,1.11,0,0,1,2.21,0,1.11,1.11,0,0,1-2.21,0Zm.24,2.57h1.71V18.4h-1.71Z"/><path class="cls-1" d="M244.18,19.93a2.16,2.16,0,0,1,1.2-1.8v-.08a1.51,1.51,0,0,1-.75-1.36,2,2,0,0,1,.91-1.53V15.1a2.86,2.86,0,0,1-1.08-2.19,3,3,0,0,1,3.2-3,3.48,3.48,0,0,1,1.2.21h2.92v1.29h-1.57a2.24,2.24,0,0,1,.54,1.51,3,3,0,0,1-4.25,2.58,1.09,1.09,0,0,0-.45.87c0,.5.33.81,1.38.81H249c2,0,3,.6,3,2,0,1.59-1.68,2.88-4.32,2.88C245.62,22.1,244.18,21.37,244.18,19.93Zm6.07-.44c0-.69-.54-.9-1.54-.9h-1.25a5,5,0,0,1-1.11-.12,1.49,1.49,0,0,0-.7,1.2c0,.81.84,1.29,2.2,1.29S250.25,20.26,250.25,19.49Zm-1-6.58a1.57,1.57,0,1,0-3.12,0,1.57,1.57,0,1,0,3.12,0Z"/><path class="cls-1" d="M253.21,7.58a1,1,0,0,1,1.09-1,1,1,0,1,1,0,2A1,1,0,0,1,253.21,7.58Zm.24,2.57h1.71V18.4h-1.71Z"/><path class="cls-1" d="M258,15.7V11.53h-1.2V10.24l1.28-.09.19-2.28h1.46v2.28h2.14v1.38h-2.14v4.18c0,1,.34,1.5,1.2,1.5a2.56,2.56,0,0,0,.88-.19l.32,1.27a5.37,5.37,0,0,1-1.62.3C258.67,18.59,258,17.44,258,15.7Z"/><path class="cls-1" d="M263.21,16.21c0-1.77,1.5-2.69,4.94-3.06,0-1-.36-1.8-1.58-1.8a4.51,4.51,0,0,0-2.38.84L263.54,11a6.33,6.33,0,0,1,3.33-1.08c2.06,0,3,1.3,3,3.49v5h-1.41l-.15-.95h0a4.09,4.09,0,0,1-2.63,1.14A2.28,2.28,0,0,1,263.21,16.21Zm4.94.06v-2c-2.45.3-3.27.92-3.27,1.85s.55,1.14,1.29,1.14A2.94,2.94,0,0,0,268.15,16.27Z"/><path class="cls-1" d="M272.32,16.46v-10H274V16.55c0,.47.21.63.42.63a1.18,1.18,0,0,0,.28,0l.23,1.31a2.93,2.93,0,0,1-.93.13C272.78,18.59,272.32,17.8,272.32,16.46Z"/><path class="cls-1" d="M284.66,0h2.89V18.4h-2.89Z"/><path class="cls-1" d="M291.26,10.15h1.41l.13,1.14h.05a3.93,3.93,0,0,1,2.73-1.35c1.75,0,2.53,1.17,2.53,3.27V18.4h-1.72v-5c0-1.43-.42-2-1.39-2a2.82,2.82,0,0,0-2,1.13V18.4h-1.71Z"/><path class="cls-1" d="M300.89,15.7V11.53h-1.2V10.24l1.28-.09.19-2.28h1.46v2.28h2.14v1.38h-2.14v4.18c0,1,.34,1.5,1.2,1.5a2.56,2.56,0,0,0,.88-.19l.32,1.27a5.31,5.31,0,0,1-1.62.3C301.54,18.59,300.89,17.44,300.89,15.7Z"/><path class="cls-1" d="M306,14.29c0-2.69,1.83-4.35,3.77-4.35,2.19,0,3.36,1.57,3.36,3.91a4,4,0,0,1-.08.87h-5.35a2.48,2.48,0,0,0,2.55,2.52,3.47,3.47,0,0,0,2-.61l.6,1.09a5,5,0,0,1-2.78.87A4,4,0,0,1,306,14.29Zm5.64-.75c0-1.43-.64-2.25-1.84-2.25a2.22,2.22,0,0,0-2.11,2.25Z"/><path class="cls-1" d="M314.43,19.93a2.18,2.18,0,0,1,1.2-1.8v-.08a1.51,1.51,0,0,1-.75-1.36,2,2,0,0,1,.92-1.53V15.1a2.82,2.82,0,0,1-1.08-2.19,3,3,0,0,1,3.19-3,3.4,3.4,0,0,1,1.2.21H322v1.29h-1.58A2.19,2.19,0,0,1,321,13a2.82,2.82,0,0,1-3.09,2.84,2.79,2.79,0,0,1-1.15-.26,1.09,1.09,0,0,0-.45.87c0,.5.33.81,1.38.81h1.51c1.95,0,3,.6,3,2,0,1.59-1.68,2.88-4.32,2.88C315.87,22.1,314.43,21.37,314.43,19.93Zm6.08-.44c0-.69-.54-.9-1.55-.9h-1.24a4.91,4.91,0,0,1-1.11-.12,1.48,1.48,0,0,0-.71,1.2c0,.81.84,1.29,2.21,1.29S320.51,20.26,320.51,19.49Zm-1-6.58a1.57,1.57,0,1,0-3.12,0,1.57,1.57,0,1,0,3.12,0Z"/><path class="cls-1" d="M323.7,10.15h1.41l.14,1.48h0a2.87,2.87,0,0,1,2.34-1.69,2,2,0,0,1,.93.18l-.31,1.5a2.49,2.49,0,0,0-.83-.14c-.67,0-1.48.47-2,1.77V18.4H323.7Z"/><path class="cls-1" d="M329.36,16.21c0-1.77,1.5-2.69,4.93-3.06,0-1-.36-1.8-1.57-1.8a4.57,4.57,0,0,0-2.39.84L329.69,11A6.3,6.3,0,0,1,333,9.94c2.05,0,3,1.3,3,3.49v5h-1.41l-.15-.95h0a4.06,4.06,0,0,1-2.62,1.14A2.28,2.28,0,0,1,329.36,16.21Zm4.93.06v-2c-2.44.3-3.27.92-3.27,1.85s.56,1.14,1.29,1.14A2.92,2.92,0,0,0,334.29,16.27Z"/><path class="cls-1" d="M338.73,15.7V11.53h-1.2V10.24l1.28-.09L339,7.87h1.46v2.28h2.14v1.38h-2.14v4.18c0,1,.34,1.5,1.2,1.5a2.56,2.56,0,0,0,.88-.19l.32,1.27a5.31,5.31,0,0,1-1.62.3C339.38,18.59,338.73,17.44,338.73,15.7Z"/><path class="cls-1" d="M343.82,14.29c0-2.69,1.83-4.35,3.76-4.35,2.19,0,3.36,1.57,3.36,3.91a4.91,4.91,0,0,1-.07.87h-5.36a2.49,2.49,0,0,0,2.55,2.52,3.5,3.5,0,0,0,2-.61l.6,1.09a5,5,0,0,1-2.79.87A4,4,0,0,1,343.82,14.29Zm5.64-.75c0-1.43-.65-2.25-1.85-2.25a2.23,2.23,0,0,0-2.11,2.25Z"/><path class="cls-1" d="M352.32,14.29c0-2.69,1.7-4.35,3.54-4.35a3.16,3.16,0,0,1,2.22.93L358,9.5V6.44h1.72v12h-1.41l-.15-.93h0a3.46,3.46,0,0,1-2.4,1.12C353.66,18.59,352.32,17,352.32,14.29ZM358,16.16v-4a2.58,2.58,0,0,0-1.82-.75c-1.15,0-2.08,1.09-2.08,2.88s.73,2.91,2,2.91A2.44,2.44,0,0,0,358,16.16Z"/><path class="cls-1" d="M365.7,10.15h1.41l.14.9h0a4.18,4.18,0,0,1,2.54-1.11c2.1,0,3.27,1.66,3.27,4.2,0,2.83-1.7,4.45-3.56,4.45a3.39,3.39,0,0,1-2.17-.93l0,1.41v2.67H365.7Zm5.61,4c0-1.73-.55-2.79-1.93-2.79a2.92,2.92,0,0,0-2,1v4a2.83,2.83,0,0,0,1.8.75C370.41,17.17,371.31,16.1,371.31,14.17Z"/><path class="cls-1" d="M374.57,14.29c0-2.76,1.84-4.35,3.88-4.35s3.89,1.59,3.89,4.35a3.91,3.91,0,1,1-7.77,0Zm6,0c0-1.76-.81-2.93-2.12-2.93s-2.1,1.17-2.1,2.93.81,2.89,2.1,2.89S380.57,16,380.57,14.29Z"/><path class="cls-1" d="M384.36,10.15h1.41l.14,1.48h0a2.87,2.87,0,0,1,2.34-1.69,2,2,0,0,1,.93.18l-.31,1.5a2.49,2.49,0,0,0-.83-.14c-.67,0-1.48.47-2,1.77V18.4h-1.71Z"/><path class="cls-1" d="M390.77,15.7V11.53h-1.2V10.24l1.27-.09.2-2.28h1.45v2.28h2.15v1.38h-2.15v4.18c0,1,.35,1.5,1.2,1.5a2.57,2.57,0,0,0,.89-.19l.31,1.27a5.25,5.25,0,0,1-1.62.3C391.41,18.59,390.77,17.44,390.77,15.7Z"/><path class="cls-1" d="M396,16.21c0-1.77,1.5-2.69,4.93-3.06,0-1-.36-1.8-1.57-1.8a4.57,4.57,0,0,0-2.39.84L396.29,11a6.3,6.3,0,0,1,3.33-1.08c2.05,0,3,1.3,3,3.49v5h-1.41l-.15-.95H401a4.06,4.06,0,0,1-2.62,1.14A2.28,2.28,0,0,1,396,16.21Zm4.93.06v-2c-2.44.3-3.27.92-3.27,1.85s.56,1.14,1.29,1.14A2.92,2.92,0,0,0,400.89,16.27Z"/><path class="cls-1" d="M405.06,16.46v-10h1.71V16.55c0,.47.21.63.42.63a1.21,1.21,0,0,0,.29,0l.22,1.31a2.93,2.93,0,0,1-.93.13C405.53,18.59,405.06,17.8,405.06,16.46Z"/></g></g></svg>