<svg xmlns="http://www.w3.org/2000/svg" viewBox="0 0 552.66 249.6"><defs><style>.cls-1{fill:#fff;}.cls-2{fill:#0c6bb0;}.cls-3{fill:#e7211a;}.cls-4{fill:#1c2a53;}</style></defs><title>アセット 24</title><g id="レイヤー_2" data-name="レイヤー 2"><g id="logo"><circle class="cls-1" cx="334.06" cy="210.1" r="35.74"/><path class="cls-2" d="M334.06,249.6a39.5,39.5,0,1,1,39.5-39.5A39.55,39.55,0,0,1,334.06,249.6Zm0-71.47a32,32,0,1,0,32,32A32,32,0,0,0,334.06,178.13Z"/><polygon class="cls-3" points="334.09 210.1 334.15 210.1 341.45 210.1 339.11 200.2 334.12 179.1 329.1 200.35 326.79 210.1 334.09 210.1"/><polygon class="cls-4" points="334.16 210.1 334.09 210.1 326.8 210.1 329.04 219.59 334.12 241.11 339.21 219.57 341.45 210.1 334.16 210.1"/><polygon class="cls-2" points="352.55 191.65 339.11 200.2 341.45 210.1 334.15 210.1 334.09 210.1 326.79 210.1 329.1 200.35 315.98 191.36 325.19 205.22 302.89 209.92 324.74 214.48 315.73 228.31 329.04 219.59 326.8 210.1 334.09 210.1 334.16 210.1 341.45 210.1 339.21 219.57 352.61 228.22 343.66 214.46 365.13 210.11 365.13 210.1 365.23 210.04 343.55 205.22 352.55 191.65"/><polygon class="cls-4" points="17.29 75.68 36.09 75.68 36.09 0 6.75 0 6.75 16.14 17.29 16.14 17.29 75.68"/><polygon class="cls-4" points="73 77.47 117.87 0 56.75 0 56.75 16.14 88.7 16.14 55.39 73.16 73 77.47"/><polygon class="cls-4" points="114.66 75.68 127.29 75.68 127.29 50.3 134.14 50.3 134.14 39.82 127.29 39.82 127.29 28.74 114.66 28.74 114.66 39.82 110.81 39.82 110.81 50.3 114.66 50.3 114.66 75.68"/><path class="cls-4" d="M161.59,57.29V75.68h12.63V53.13c0-3.23-.41-7.35-3.61-10.54C167,38.9,162,38.9,160.36,38.9a13.7,13.7,0,0,0-7.05,1.55,13.27,13.27,0,0,0-3,2.23V18H137.66V75.68h12.63V57.75c0-1.38,0-4.59,2.08-6.6a5.24,5.24,0,0,1,3.84-1.47A5.61,5.61,0,0,1,160,51c1.48,1.42,1.61,3.79,1.61,6.29"/><polygon class="cls-4" points="48.74 128.66 22.64 97.65 11.25 97.65 11.25 149.81 24.62 149.81 24.62 118.67 50.72 149.81 62.12 149.81 62.12 97.65 48.74 97.65 48.74 128.66"/><rect class="cls-4" x="71.65" y="97.65" width="13.37" height="52.16"/><path class="cls-4" d="M127,102c-4.37-3.88-9.68-4.38-13.81-4.38H94.55v52.16h13.37V132.12h6.25c4.11,0,9.36-.54,13.47-4.73,3-3.14,4.55-7.33,4.55-12.47,0-5.6-1.7-9.82-5.2-12.89m-19.07,18.83v-12H111c2.07,0,4.38.19,5.91,1.66a5.81,5.81,0,0,1,1.62,4.28,6.15,6.15,0,0,1-1.63,4.36c-1.51,1.46-3.71,1.65-5.67,1.65Z"/><path class="cls-4" d="M170.23,102c-4.38-3.88-9.68-4.38-13.8-4.38H137.79v52.16h13.38V132.12h6.24c4.11,0,9.36-.54,13.47-4.73,3-3.14,4.55-7.33,4.55-12.47,0-5.6-1.7-9.82-5.2-12.89m-19.06,18.83v-12h3.06c2.07,0,4.39.19,5.91,1.66a5.81,5.81,0,0,1,1.62,4.28,6.19,6.19,0,0,1-1.62,4.36c-1.52,1.46-3.72,1.65-5.68,1.65Z"/><path class="cls-4" d="M207.07,96.52c-11,0-17.48,4.8-20.34,7.66a28.83,28.83,0,0,0-8,19.74,26.58,26.58,0,0,0,8.13,19.38c3,2.85,9.56,7.64,20.25,7.64,8.1,0,14.86-2.57,20.11-7.65a27.68,27.68,0,0,0,0-39.19c-5.18-5-12-7.58-20.11-7.58m-14.71,27.32A14.16,14.16,0,0,1,207,109,15.34,15.34,0,0,1,217.5,113a15,15,0,0,1,4.13,10.73c0,5.52-2.24,8.83-4.13,10.65a14.57,14.57,0,0,1-10.58,4.06,13.89,13.89,0,0,1-10.2-3.92,14.21,14.21,0,0,1-4.36-10.72"/><polygon class="cls-4" points="279.76 128.66 253.67 97.65 242.27 97.65 242.27 149.81 255.64 149.81 255.64 118.67 281.74 149.81 293.14 149.81 293.14 97.65 279.76 97.65 279.76 128.66"/><path class="cls-4" d="M343.83,118.42,340.05,117l-1.91-.71c-2.14-.78-3.32-1.21-4.17-2a2.73,2.73,0,0,1-.84-2.16,3.69,3.69,0,0,1,1.06-2.59,5.48,5.48,0,0,1,4.27-1.45,11.76,11.76,0,0,1,7.89,3.4l.77.7,6.18-10-.64-.47a25.11,25.11,0,0,0-15.48-5.16c-5.76,0-9.8,1.5-13.1,4.87a16.3,16.3,0,0,0-4.63,11.94c0,4,1.07,7,3.26,9.36s4.89,3.35,7.38,4.24l4.19,1.45c1.3.48,4.36,1.61,5.58,2.62a3.59,3.59,0,0,1,1.44,3,4.36,4.36,0,0,1-1.51,3.43,7.27,7.27,0,0,1-4.73,1.53,10.75,10.75,0,0,1-5.9-1.69,30.51,30.51,0,0,1-4.53-3.72l-.71-.72-7.08,9.73.52.52a33.15,33.15,0,0,0,7.63,5.68,22.12,22.12,0,0,0,10.37,2.21c6.48,0,11.5-1.82,14.91-5.4,2.94-3,4.71-7.92,4.71-13.08a13.47,13.47,0,0,0-4-10,20.71,20.71,0,0,0-7.17-4"/><path class="cls-4" d="M386.84,96.52a27.64,27.64,0,0,0-19.42,7.5,27.86,27.86,0,0,0,0,39.34c5.11,5,12,7.58,20.4,7.58a24.4,24.4,0,0,0,11.51-2.81l.48-.24v-16l-1.48,1.45c-3.4,3.34-7,5-11,5a14.37,14.37,0,0,1-10.28-4A14.18,14.18,0,0,1,373,123.84a15.38,15.38,0,0,1,4.51-11,13.38,13.38,0,0,1,9.67-3.68,15,15,0,0,1,11.17,5.09l1.5,1.58V99.61l-.53-.22a31.13,31.13,0,0,0-12.44-2.87"/><path class="cls-4" d="M433.41,96.52c-11,0-17.48,4.8-20.34,7.66a28.83,28.83,0,0,0-8,19.74,26.58,26.58,0,0,0,8.12,19.38c3,2.85,9.57,7.64,20.26,7.64,8.09,0,14.86-2.57,20.11-7.65a27.68,27.68,0,0,0,0-39.19c-5.18-5-11.95-7.58-20.11-7.58M418.7,123.84A14.16,14.16,0,0,1,433.33,109,15.35,15.35,0,0,1,443.84,113,15,15,0,0,1,448,123.77c0,5.52-2.24,8.83-4.13,10.65a14.59,14.59,0,0,1-10.58,4.06,13.93,13.93,0,0,1-10.21-3.92,14.2,14.2,0,0,1-4.35-10.72"/><path class="cls-4" d="M499.6,128.08c0,2.51-.27,5.67-2.41,7.87a9.79,9.79,0,0,1-12.81,0c-2.13-2.19-2.41-5.35-2.41-7.86V97.65H468.6v30.73c0,5.21.7,11.25,5.84,16.56s11.15,6,16.35,6,11.21-.71,16.35-6S513,133.59,513,128.38V97.65H499.6Z"/><polygon class="cls-4" points="517.36 97.65 517.36 109.21 528.32 109.21 528.32 149.81 541.69 149.81 541.69 109.21 552.66 109.21 552.66 97.65 517.36 97.65"/><path class="cls-4" d="M24,223.35c0,3.13-.16,6.34-2,8.15a4.36,4.36,0,0,1-3.38,1.29,4.66,4.66,0,0,1-3.6-1.41,18.23,18.23,0,0,1-2.5-3.87L12,226.37,0,239.84l.46.57a31.42,31.42,0,0,0,7.21,6.41c3.85,2.31,7.67,2.78,12.2,2.78,4.87,0,11.11-.65,16.24-5.79,6.69-6.57,6.69-15.88,6.69-20.35v-51.2H24Z"/><path class="cls-4" d="M79.49,172.26,49,247.94H68.57l5.65-14H101l5.55,14h19.59L96.29,172.26Zm.38,46.9,7.95-21.47,7.87,21.47Z"/><polygon class="cls-4" points="192.02 172.26 174.19 215.11 156.37 172.26 140.86 172.26 128.72 247.94 147.57 247.94 153.12 206.23 170.62 247.94 177.76 247.94 195.26 206.23 200.82 247.94 219.67 247.94 207.53 172.26 192.02 172.26"/><path class="cls-4" d="M280.35,212a19.81,19.81,0,0,0-8.36-4.71,14.5,14.5,0,0,0,4.49-4.64,18,18,0,0,0,2.57-9.88c0-4.23-1-10.19-5.59-14.6-6.25-5.89-16.18-5.89-19.45-5.89H230.53v75.68h28.69c9,0,15.54-2.15,20.13-6.57,4-4,6-9.24,6-15.58,0-7.26-2.73-11.52-5-13.81M261.8,194.52a7.1,7.1,0,0,1-2.64,5.85c-2.41,1.75-6.49,1.94-8.14,1.94h-1.91v-15h1.8c3,0,6.14,0,8.35,1.71a6.68,6.68,0,0,1,2.54,5.51M249.11,232.9V216.68h3.79c3.32,0,8.87,0,11.62,2.55a7,7,0,0,1,2,5.34,7.4,7.4,0,0,1-2.16,5.58c-3,2.75-8.43,2.75-12,2.75Z"/><path class="cls-4" d="M433.11,211.77c4.05-4,6-9.09,6-15.69,0-9.3-4.2-14.73-6.71-17.15-3.24-3.05-9.24-6.67-19.44-6.67H386.18v75.68H405V220.72l18.63,27.22h23l-23-30.63a24.45,24.45,0,0,0,9.46-5.54m-13-15.47a9.13,9.13,0,0,1-2.52,6.6c-2.63,2.62-6.5,2.95-9.59,2.95h-3V187.3h3.12c4,0,7.06.74,8.9,2.14a8.2,8.2,0,0,1,3.1,6.86"/><polygon class="cls-4" points="453.48 247.94 497 247.94 497 231.8 472.28 231.8 472.28 217.12 495.79 217.12 495.79 200.98 472.28 200.98 472.28 188.4 497 188.4 497 172.26 453.48 172.26 453.48 247.94"/><polygon class="cls-4" points="552.66 188.4 552.66 172.26 509.13 172.26 509.13 247.94 552.66 247.94 552.66 231.8 527.94 231.8 527.94 217.12 551.44 217.12 551.44 200.98 527.94 200.98 527.94 188.4 552.66 188.4"/></g></g></svg>