<svg xmlns="http://www.w3.org/2000/svg" viewBox="0 0 85.64 85.64"><defs><style>.cls-1{fill:none;}.cls-2{fill:#fff;}</style></defs><title>newsinfo_w</title><g id="レイヤー_2" data-name="レイヤー 2"><g id="レイヤー_1-2" data-name="レイヤー 1"><path class="cls-1" d="M79,42.82A36.18,36.18,0,1,0,42.82,79,36.22,36.22,0,0,0,79,42.82ZM32.32,60.38a18.57,18.57,0,0,1-10.18-3L12,60.67l4.85-8.61a18.62,18.62,0,1,1,15.51,8.32ZM57,60.53a15.22,15.22,0,0,1-9.41-3.21A21.46,21.46,0,0,0,51.2,31.07,15.3,15.3,0,0,1,72.3,45.2a15.17,15.17,0,0,1-2.54,8.47l4,7.07L65.39,58A15.23,15.23,0,0,1,57,60.53Z"/><path class="cls-2" d="M42.82,0A42.82,42.82,0,1,0,85.64,42.82,42.87,42.87,0,0,0,42.82,0ZM6.64,42.82A36.18,36.18,0,1,1,42.82,79,36.22,36.22,0,0,1,6.64,42.82Z"/><path class="cls-2" d="M69.76,53.67A15.3,15.3,0,0,0,57,29.93a15.38,15.38,0,0,0-5.77,1.14,21.46,21.46,0,0,1-3.58,26.25A15.32,15.32,0,0,0,65.39,58l8.38,2.71Zm-8.87-2.51H58.27v-8h2.62Zm0-9.55H58.27v-2h2.62Z"/><path class="cls-2" d="M32.32,23.14A18.62,18.62,0,0,0,16.81,52.06L12,60.67l10.18-3.32A18.62,18.62,0,1,0,32.32,23.14Zm-7.87,23H22.78l-2.44-4.63h0V46.1H18.63V38.55h1.69l2.44,4.63h0V38.55h1.67ZM30.85,40H27.78v1.54h2.87v1.33H27.78v1.84h3.07V46.1H26V38.55h4.83Zm8.24,6.13h-2l-.79-5.76h0l-.79,5.76h-2l-1.5-7.55h1.78l.78,5.76h0l.72-5.76h2.13l.71,5.76h0l.79-5.76h1.73Zm4.73.1a4.23,4.23,0,0,1-2.14-.54v-1.5a3.52,3.52,0,0,0,2,.67,1.32,1.32,0,0,0,.83-.22.7.7,0,0,0,.28-.6.81.81,0,0,0-.19-.56,1.56,1.56,0,0,0-.69-.37,4.51,4.51,0,0,1-1.88-1,2.14,2.14,0,0,1-.58-1.51A1.9,1.9,0,0,1,42.17,39a2.93,2.93,0,0,1,1.94-.56,5.65,5.65,0,0,1,2.27.41v1.48a4.77,4.77,0,0,0-2.17-.54c-.63,0-1,.25-1,.74s.28.72.84.9a4.62,4.62,0,0,1,2,1A2.09,2.09,0,0,1,46.63,44C46.63,45.46,45.7,46.2,43.82,46.2Z"/><polygon class="cls-1" points="22.78 43.18 22.76 43.18 20.32 38.55 18.63 38.55 18.63 46.1 20.32 46.1 20.32 41.47 20.34 41.47 22.78 46.1 24.45 46.1 24.45 38.55 22.78 38.55 22.78 43.18"/><polygon class="cls-1" points="26.02 46.1 30.85 46.1 30.85 44.68 27.78 44.68 27.78 42.84 30.65 42.84 30.65 41.51 27.78 41.51 27.78 39.97 30.85 39.97 30.85 38.55 26.02 38.55 26.02 46.1"/><polygon class="cls-1" points="38.07 44.31 38.05 44.31 37.34 38.55 35.21 38.55 34.49 44.31 34.47 44.31 33.69 38.55 31.91 38.55 33.41 46.1 35.45 46.1 36.24 40.34 36.26 40.34 37.05 46.1 39.09 46.1 40.59 38.55 38.86 38.55 38.07 44.31"/><path class="cls-1" d="M46.08,42.46a4.62,4.62,0,0,0-2-1q-.84-.27-.84-.9c0-.49.32-.74,1-.74a4.77,4.77,0,0,1,2.17.54V38.86a5.65,5.65,0,0,0-2.27-.41,2.93,2.93,0,0,0-1.94.56,1.9,1.9,0,0,0-.68,1.53,2.14,2.14,0,0,0,.58,1.51,4.51,4.51,0,0,0,1.88,1,1.56,1.56,0,0,1,.69.37.81.81,0,0,1,.19.56.7.7,0,0,1-.28.6,1.32,1.32,0,0,1-.83.22,3.52,3.52,0,0,1-2-.67v1.5a4.23,4.23,0,0,0,2.14.54c1.88,0,2.81-.74,2.81-2.22A2.09,2.09,0,0,0,46.08,42.46Z"/><rect class="cls-1" x="58.27" y="39.61" width="2.62" height="2"/><rect class="cls-1" x="58.27" y="43.15" width="2.62" height="8.01"/></g></g></svg>