<svg xmlns="http://www.w3.org/2000/svg" viewBox="0 0 85.64 85.64"><defs><style>.cls-1{fill:none;}.cls-2{fill:#fff;}</style></defs><title>program_w</title><g id="レイヤー_2" data-name="レイヤー 2"><g id="レイヤー_1-2" data-name="レイヤー 1"><path class="cls-1" d="M79,42.82A36.18,36.18,0,1,0,42.82,79,36.22,36.22,0,0,0,79,42.82ZM60.5,45.63l-3.93-10.1L46.9,61.82a3.31,3.31,0,0,1-3,2.17h-.16a3.32,3.32,0,0,1-3-1.88L30.5,40.72l-4.86,6.67A3.31,3.31,0,0,1,23,48.76H11.79a3.32,3.32,0,1,1,0-6.64h9.48l7.13-9.81a3.32,3.32,0,0,1,5.68.52l9.29,19.33L53.36,25a3.33,3.33,0,0,1,3.09-2.18h0a3.3,3.3,0,0,1,3.09,2.12L65.86,41.1h8.4a3.33,3.33,0,0,1,0,6.65H63.59A3.32,3.32,0,0,1,60.5,45.63Z"/><path class="cls-2" d="M42.82,0A42.82,42.82,0,1,0,85.64,42.82,42.87,42.87,0,0,0,42.82,0ZM6.64,42.82A36.18,36.18,0,1,1,42.82,79,36.22,36.22,0,0,1,6.64,42.82Z"/><path class="cls-2" d="M77.58,44.43a3.33,3.33,0,0,0-3.32-3.33h-8.4L59.57,24.94a3.3,3.3,0,0,0-3.09-2.12h0A3.33,3.33,0,0,0,53.36,25l-10,27.16L34.08,32.83a3.32,3.32,0,0,0-5.68-.52l-7.13,9.81H11.79a3.32,3.32,0,1,0,0,6.64H23a3.31,3.31,0,0,0,2.68-1.37l4.86-6.67,10.29,21.4a3.32,3.32,0,0,0,3,1.88h.16a3.31,3.31,0,0,0,3-2.17l9.67-26.29,3.93,10.1a3.32,3.32,0,0,0,3.09,2.12H74.26A3.32,3.32,0,0,0,77.58,44.43Z"/></g></g></svg>