<svg xmlns="http://www.w3.org/2000/svg" viewBox="0 0 85.64 85.64"><defs><style>.cls-1{fill:#d9e021;}.cls-2{fill:#0071bc;}.cls-3{fill:#e95513;}.cls-4{fill:#fff;}</style></defs><title>shop</title><g id="レイヤー_2" data-name="レイヤー 2"><g id="レイヤー_1-2" data-name="レイヤー 1"><path class="cls-1" d="M79,42.82A36.18,36.18,0,1,0,42.82,79,36.22,36.22,0,0,0,79,42.82ZM61.73,68.28H24V26.85h6.6a12.73,12.73,0,0,1,24.53,0h6.6Z"/><path class="cls-1" d="M42.87,20.65a9.65,9.65,0,0,0-9,6.2h18A9.64,9.64,0,0,0,42.87,20.65Z"/><path class="cls-2" d="M42.82,0A42.82,42.82,0,1,0,85.64,42.82,42.87,42.87,0,0,0,42.82,0ZM6.64,42.82A36.18,36.18,0,1,1,42.82,79,36.22,36.22,0,0,1,6.64,42.82Z"/><path class="cls-3" d="M42.87,17.54A12.76,12.76,0,0,0,30.6,26.85H24V68.28H61.73V26.85h-6.6A12.76,12.76,0,0,0,42.87,17.54ZM49,56.71c-2,2.12-5,2.33-6.47,2.33a9.66,9.66,0,0,1-4.52-1,14.34,14.34,0,0,1-3.36-2.5l2.74-3.77a13.93,13.93,0,0,0,2.12,1.75,5.3,5.3,0,0,0,2.88.82,3.61,3.61,0,0,0,2.4-.79,2.36,2.36,0,0,0,.82-1.85,2,2,0,0,0-.79-1.64,11.21,11.21,0,0,0-2.67-1.27l-1.88-.65a7.62,7.62,0,0,1-3.19-1.81,5.62,5.62,0,0,1-1.37-4,7,7,0,0,1,2-5.14,7.37,7.37,0,0,1,5.65-2.09,11.09,11.09,0,0,1,6.78,2.26L47.8,41.27A5.61,5.61,0,0,0,44,39.62a2.89,2.89,0,0,0-2.23.79,2.06,2.06,0,0,0-.58,1.44,1.59,1.59,0,0,0,.52,1.27,9.08,9.08,0,0,0,2.87,1.3l1.72.65a9,9,0,0,1,3.11,1.75,5.65,5.65,0,0,1,1.68,4.24A8.18,8.18,0,0,1,49,56.71ZM33.87,26.85a9.63,9.63,0,0,1,18,0Z"/><path class="cls-4" d="M46.26,45.07l-1.72-.65a9.08,9.08,0,0,1-2.87-1.3,1.59,1.59,0,0,1-.52-1.27,2.06,2.06,0,0,1,.58-1.44A2.89,2.89,0,0,1,44,39.62a5.61,5.61,0,0,1,3.84,1.65l2.36-3.84a11.09,11.09,0,0,0-6.78-2.26,7.37,7.37,0,0,0-5.65,2.09,7,7,0,0,0-2,5.14,5.62,5.62,0,0,0,1.37,4,7.62,7.62,0,0,0,3.19,1.81l1.88.65a11.21,11.21,0,0,1,2.67,1.27,2,2,0,0,1,.79,1.64,2.36,2.36,0,0,1-.82,1.85,3.61,3.61,0,0,1-2.4.79,5.3,5.3,0,0,1-2.88-.82,13.93,13.93,0,0,1-2.12-1.75l-2.74,3.77A14.34,14.34,0,0,0,38,58.08a9.66,9.66,0,0,0,4.52,1c1.5,0,4.45-.21,6.47-2.33a8.18,8.18,0,0,0,2-5.65,5.65,5.65,0,0,0-1.68-4.24A9,9,0,0,0,46.26,45.07Z"/></g></g></svg>